<svg height="852" viewBox="0 0 1581 852" width="1581" xmlns="http://www.w3.org/2000/svg"><g fill="none" fill-rule="evenodd"><g transform="translate(742 296)"><g stroke="#cce3ff" stroke-width="12"><path d="m162.3041 156.9291-45.914-97.317"/><path d="m213.2675 4.2084-96.877 55.403"/><path d="m212.1405 5.4047h39.517"/></g><path d="m132.7607 165.7797h86.16c0-7.837-6.353-14.19-14.19-14.19h-57.78c-7.837 0-14.19 6.353-14.19 14.19" fill="#dceeff"/><path d="m287.9599 37.8549c0-20.049-16.253-36.302-36.302-36.302-20.05 0-36.303 16.253-36.303 36.302" fill="#dceeff"/><path d="m32.8852 522.8969h8.137l50-333.11h-28.137z" fill="#b6d4ff"/><path d="m175.332 522.8969h8.137l50-333.11h-28.137z" fill="#b6d4ff"/><path d="m374.9223 63.7992h121.641l-28.542 94.096h-121.64z" fill="#dceeff"/><path d="m488.0004 69.852-24.366 80.343h-108.854l24.366-80.343z" fill="#fff"/><path d="m468.1323 94.5805-1.161 3.841h-89.352l1.16-3.841z" fill="#b6d4ff"/><path d="m462.4321 102.4057-1.161 3.841h-86.427l1.16-3.841z" fill="#b6d4ff"/><path d="m435.3559 110.2309-1.16 3.842h-62.052l1.16-3.842z" fill="#b6d4ff"/><path d="m257.436 165.633h121.64v-7.738h-121.64z" fill="#dceeff"/><path d="m379.076 165.633h88.902v-7.738h-88.902z" fill="#ecf6ff"/><path d="m496.4623 63.7992h7.475l-28.541 94.096h-7.475z" fill="#ecf6ff"/><path d="m0 189.787h459.5v-24.153h-459.5z" fill="#b6d4ff"/><path d="m426.269 189.787h179.27v-24.153h-179.27z" fill="#dceeff"/><path d="m582.7885 522.8969h8.137l-30-333.11h-28.137z" fill="#dceeff"/><path d="m439.7924 522.8969h8.137l-30-333.11h-28.137z" fill="#dceeff"/><path d="m472.5942 79.4008-1.16 3.842h-89.353l1.16-3.842z" fill="#b6d4ff"/><path d="m460.7036 87.226-1.16 3.842h-79.603l1.161-3.842z" fill="#b6d4ff"/><path d="m442.1088 68.8432-15.203 1.841-1.218-1.912.802-1.744-1.157-1.388 14.203-1.841 2.145 1.281-1.796 1.795z" fill="#b6d4ff"/></g><g transform="translate(456 350)"><path d="m259.6459 231.9397v1.66c0 13.85-10.745 25.069-23.988 25.069h-187.904c-28.984 0-51.289-27.809-47.289-58.969l21.214-173.62c1.837-14.38 13.157-25.08 26.534-25.08h55.691c13.368 0 24.687 10.7 26.535 25.08l21.214 173.62c.162 1.24.277 2.48.345 3.71l.114-.02s3.924 28.55 40.399 28.55z" fill="#dceeff"/><path d="m59.6068 454.2415c0 8.855-7.18 16.034-16.035 16.034-8.856 0-16.034-7.179-16.034-16.034s7.178-16.035 16.034-16.035c8.855 0 16.035 7.18 16.035 16.035" fill="#b6d4ff"/><path d="m205.9232 457.4563h-158.461c-6.069 0-11.035-4.966-11.035-11.035s4.966-11.036 11.035-11.036h158.461c6.069 0 11.035 4.967 11.035 11.036s-4.966 11.035-11.035 11.035" fill="#cce3ff"/><path d="m118.562 452.208h16.262v-194.208h-16.262z" fill="#cce3ff"/><path d="m182.4135 258.0003-55.721 25.376-55.72-25.376z" fill="#cce3ff"/><g fill="#b6d4ff"><path d="m127.9252 457.4563h-20.562c-6.07 0-11.036-4.966-11.036-11.035s4.966-11.036 11.036-11.036h20.562c6.069 0 11.035 4.967 11.035 11.036s-4.966 11.035-11.035 11.035"/><path d="m114.4369 454.2415c0 8.855-7.179 16.034-16.034 16.034-8.857 0-16.035-7.179-16.035-16.034s7.178-16.035 16.035-16.035c8.855 0 16.034 7.18 16.034 16.035"/><path d="m226.9096 454.2415c0 8.855-7.179 16.034-16.035 16.034s-16.034-7.179-16.034-16.034 7.178-16.035 16.034-16.035 16.035 7.18 16.035 16.035"/></g></g><g transform="translate(1362 374)"><g fill="#dceeff"><path d="m163.0419 56.1488s-76.674 169.231-85.829 353.231c0 0 42.914-186.461 85.829-353.231"/><path d="m25.8553 186.2006s55.187 1.436 63.589 185.436c0 0-23.551-138.872-63.589-185.436"/><path d="m82.2098.9994s32.216 194.674.506 392.766c0 0 1.884-206.894-.506-392.766"/></g><path d="m125.6669 445.8588h-79.677c-.598 0-1.194-.011-1.788-.033-36.331-1.358-56.544-47.312-35.968-80.466l18.253-29.408h118.683l18.252 29.408c20.577 33.154.364 79.108-35.967 80.466-.594.022-1.189.033-1.788.033" fill="#ecf6ff"/><path d="m-.0001 403.5893h171.657" stroke="#b6d4ff" stroke-width="9"/><path d="m3.9842 375.1669h164.241" stroke="#b6d4ff" stroke-width="9"/></g><g transform="translate(22 21)"><path d="m472.0708 338.5782c0 26.544-31.061 48.063-69.376 48.063s-69.377-21.519-69.377-48.063 31.062-48.062 69.377-48.062 69.376 21.518 69.376 48.062" fill="#d2e9fc"/><path d="m405.1909 287.4356c1.974 13.433-4.736 24.891-4.736 24.891s-9.909-10.322-11.882-23.755c-1.974-13.434 4.735-24.891 4.735-24.891s9.909 10.322 11.883 23.755" fill="#cce3ff"/><path d="m402.3032 296.211c8.826 12.084 8.507 24.419 8.507 24.419s-14.63-7.257-23.457-19.342c-8.826-12.084-8.506-24.419-8.506-24.419s14.63 7.258 23.456 19.342" fill="#cce3ff"/><path d="m413.3843 288.8966c-2.345 13.406-12.537 23.599-12.537 23.599s-6.392-11.542-4.047-24.948c2.344-13.405 12.537-23.598 12.537-23.598s6.391 11.542 4.047 24.947" fill="#cce3ff"/><path d="m420.7339 298.608c-7.386 12.525-21.121 20.555-21.121 20.555s-1.761-12.279 5.626-24.804c7.387-12.526 21.122-20.555 21.122-20.555s1.76 12.279-5.627 24.804" fill="#cce3ff"/><path d="m440.1274 424.2545h-74.865c-13.229 0-23.951-10.723-23.951-23.951 0-13.227 10.722-23.95 23.951-23.95h74.865c13.228 0 23.951 10.723 23.951 23.95 0 13.228-10.723 23.951-23.951 23.951" fill="#cce3ff"/><g stroke="#b6d4ff"><path d="m363.0513 304.6612-12.788-9.966" stroke-width="9"/><path d="m344.8276 356.2281-11.51 7.926" stroke-width="9"/><path d="m378.2778 351.9044 19.862 3.241" stroke-width="9"/><path d="m429.0669 303.0401 11.993-14.818" stroke-width="9"/><path d="m450.9702 319.1632 13.108-8.394" stroke-width="9"/><path d="m453.5278 362.5289 12.469 8.038" stroke-width="9"/><path d="m384.0435 322.483-5.934-13.793" stroke-width="9"/><path d="m440.8022 337.525-14.258 6.788" stroke-width="9"/><path d="m371.8335 329.6363-13.574-9.03" stroke-width="9"/><path d="m546.3765 1.0001v441.077" stroke-width="20"/></g><path d="m28.4751 4.6051v433.538" stroke="#ecf6ff" stroke-width="22"/><path d="m290.2798 15.2384v424.411" stroke="#ecf6ff" stroke-width="22"/><path d="m.001 442.077h537.152v-441.077h-537.152zm19-19h499.152v-403.077h-499.152z" fill="#dceeff"/><path d="m272.8022 2.8849v438.127" stroke="#dceeff" stroke-width="22"/><path d="m.0005 221.5387h537.152" stroke="#dceeff" stroke-width="22"/><path d="m31.414 36.577h486.808v-16.753h-486.808z" fill="#cce3ff"/><path d="m31.414 66.214h486.808v-16.753h-486.808z" fill="#cce3ff"/><path d="m31.414 95.852h486.808v-16.753h-486.808z" fill="#cce3ff"/><path d="m31.414 125.489h486.808v-16.753h-486.808z" fill="#cce3ff"/><path d="m31.414 155.127h486.808v-16.753h-486.808z" fill="#cce3ff"/></g><g transform="translate(468 196)"><path d="m173.2319 70.2387c1.174 28.282 16.136 45.23 17.533 71.625 1.798 33.949-17.67 30.361-16.195 58.22.765 14.438-127.854 49.291-164.102 3.892-23.26-29.132-.189-32.764-2.281-72.288-2.072-39.125 26.095-44.998 25.003-65.625-1.453-27.449 20.598-64.022 56.597-65.935 43.846-2.329 81.67 27.365 83.445 70.111z" fill="#19141e"/><path d="m107.685 136.644s-12.892 1.067-18.556-1.648l18.321 10.191z" fill="#cf3e83"/><path d="m22.2501265 67.3600641c4.4 6.263 3.191 14.886 1.144 19.996-.69 1.755-5.004 16.3929999-5.71 17.0829999-2.744 2.676 33.296 16.162 33.296 16.162l.803-29.1269999c10.243.048 22.2-1.127 28.55-5.854 18.916-14.081 17.678-59.363 17.237-61.608l-17.421-17.52399998s-25.406-10.136-28.922-5.07c-6.431 9.27799998-20.471 50.01299998-32.408 46.08199998 0 0 .818-12.476-9.53000003-11.912-7.71.42-9.47 6.716-9.275 10.288.657 12.059 16.32700003 13.046 22.23600003 21.484" fill="#f6b852" fill-rule="nonzero" transform="translate(55.902174 45.169636)"/><path d="m133.434 91.2856 8.34 17.523-8.582.283z" fill="#125475"/><path d="m125.607814 92.4799c.005986 3.589-1.951014 6.489-4.371014 6.4780312-2.42-.0110312-4.386-2.9300312-4.392014-6.5180312-.005986-3.589 1.951014-6.489 4.371014-6.4780312 2.42.0110312 4.386 2.9300312 4.392014 6.5180312" fill="#0d0b6d"/><path d="m148.232314 90.7065c.005986 3.589-1.951014 6.489-4.371014 6.4780312-2.42-.0110312-4.386-2.9300312-4.392014-6.5180312-.005986-3.589 1.951014-6.489 4.371014-6.4780312 2.42.0110312 4.386 2.9300312 4.392014 6.5180312" fill="#0d0b6d"/><path d="m139.193141 22.0543264c.852145-.9536521 1.755617-1.8629598 2.706559-2.7237264 2.134 1.831 4.157 3.785 6.047 5.863 10.167 11.159 16.666 25.662 17.544 41.777.023.408.044.806.057 1.214h.01l.712 13.057c-.506.008-1.003-.004-1.51-.025-9.901-.444-18.854-4.804-25.17-11.616-2.342-2.53-4.325-5.401-5.866-8.531-.243-.464-.458-.949-.673-1.414-1.072625-2.4763567-1.871829-5.0999069-2.358063-7.8331248-33.841298 47.7956239-55.971037 40.8474248-55.971037 40.8474248l3.208-24.999-24.661-26.525s70.328766-30.3862604 85.924541-19.0915736z" fill="#19141e"/><path d="m139.193141 22.0543264c.852145-.9536521 1.755617-1.8629598 2.706559-2.7237264 2.134 1.831 4.157 3.785 6.047 5.863 10.167 11.159 16.666 25.662 17.544 41.777.023.408.044.806.057 1.214h.01l.712 13.057c-.506.008-1.003-.004-1.51-.025-9.901-.444-18.854-4.804-25.17-11.616-2.342-2.53-4.325-5.401-5.866-8.531-.243-.464-.458-.949-.673-1.414-1.072625-2.4763567-1.871829-5.0999069-2.358063-7.8331248-33.841298 47.7956239-55.971037 40.8474248-55.971037 40.8474248l3.208-24.999-24.661-26.525s70.328766-30.3862604 85.924541-19.0915736z" fill="#19141e"/><path d="m131.5434 117.7841s-5.49 2.099-11.418-3.828" stroke="#1c295e" stroke-width="3"/><path d="m107.664 136.645s-12.892 1.066-18.556-1.648l18.321 10.191z" fill="#000" opacity=".396996"/></g><g transform="translate(444 325)"><path d="m82.002 168.6909-6.91-.101s.01-.109.019-.339c2.38.169 4.681.309 6.891.44" fill="#c83820"/><path d="m222.8018 243.5708-22.811 2.859-36.739-57.46-1.341-19.099-55.969-.83-23.89-.35h-.05c-2.21-.131-4.511-.27-6.89-.44-30.09-2.1-71.78-7.951-74.64-24.151-5.19-29.34 34.07-86.279 38.71-92.879.29-.41.439-.63.439-.63 6.58-9.4 13.201-16.71 19.381-20.6 12.02-7.57 23.29-9.231 34-9.2l2.869-20.79 43.691 6.029-2.38 17.281c12.83 1.23 21.559 3.739 29.729 11.239 26.231 24.081 28.161 114.271 28.161 114.271z" fill="#ce3d29" fill-rule="nonzero"/><path d="m105.9415 169.0405v.4s-10.02.02-23.89-.75z" fill="#c83820"/><path d="m161.1075 169.6391c3.208-40.743 25.413-49.358 9.413-95.051" opacity=".201149" stroke="#000" stroke-width="3"/><path d="m198.8839 220.0434-83.438-9.617c-2.733-.316-4.532-3.002-3.783-5.648l32.968-116.478c.596-2.105 2.63-3.467 4.804-3.217l83.438 9.617c2.732.315 4.532 3.002 3.782 5.648l-32.967 116.477c-.596 2.106-2.631 3.468-4.804 3.218" fill="#18181c"/><path d="m124.791276 176.515343c.158715.042522.319323.086343.481824.132057 5.797 1.582 11.722 2.539 19.963 1.453 5.301-.693 9.858-1.599 9.807-2.445-.146-2.137-2.719-2.616-2.719-2.616l-4.95.239-4.762-.282s21.878-4.138 21.878-4.779c-.068-2.257-3.659-3.172-3.659-3.172s7.523-1.197 7.437-2.394c-.205-3.043-3.564-3.274-3.564-3.274s.932-.804.838-1.548c-.368-3.001-5.72-3.497-8.268-3.864 0 0-8.669-.119-11.251-.761-6.790539-1.695525-10.832049-3.209988-13.367347-4.474743l16.941947-59.856957c.596-2.105 2.631-3.467 4.804-3.217l83.438 9.618c2.732.314 4.532 3.001 3.782 5.647l-32.967 116.477c-.596 2.106-2.63 3.468-4.804 3.218l-83.438-9.617c-2.732-.316-4.532-3.002-3.783-5.648z" fill="#efefef" fill-rule="nonzero"/><path d="m125.405423 107.62048c5.243677 6.171608 11.629714 13.842825 12.559977 15.66992 1.614 3.171 4.599 18.868 4.457 21.97-.142 3.1-9.444 17.037-9.444 17.037-5.771-1.414-2.002-8.611-2.002-8.611s-5.169 4.371-7.318 4.297c-20.24-.69-19.156-10.937-18.677-12.221 1.075-2.882 6.478.414 6.478.414s-10.387396-21.073762-7.887387-35.819446zm-61.574323-78.57508s3.591.915 3.659 3.172c0 .641-21.878 4.779-21.878 4.779l4.762.282 4.95-.239s2.573.479 2.719 2.616c.051.846-4.506 1.752-9.807 2.445-8.241 1.086-14.166.129-19.963-1.453-.487-.137-.957-.257-1.41-.376-5.968-1.565-8.627-1.856-16.303-6.037-3.404-1.855-8.422-5.531-10.516-7.395l5.531-20.467 7.626-2.607s3.539-1.386 9.516-2.489c3.753-.692 7.416-.418 11.289-.837l-2.2 8.063c-.248.179-.532.785-.746 1.017.164.136.326.29.514.461 1.581 1.445 4.573 4.009 17.449 7.224 2.582.642 11.251.761 11.251.761 2.548.367 7.9.863 8.268 3.864.094.744-.838 1.548-.838 1.548s3.359.231 3.564 3.274c.086 1.197-7.437 2.394-7.437 2.394z" fill="#f6b852" fill-rule="nonzero" transform="translate(97 136)"/><path d="m212.5919 254.0512s2.84 10.729 12.587 14.072c3.409 1.169 2.558 14.969 10.911 13.319" opacity=".148065" stroke="#000" stroke-width="3"/><path d="m158.0753 96.5068c-.657 2.064-2.059 3.461-3.132 3.12s-1.41-2.292-.753-4.356c.657-2.065 2.059-3.462 3.132-3.121 1.073.342 1.41 2.292.753 4.357" fill="#020101"/><path d="m74.0294 82.667-21.06 34.872 52.363 20.719" opacity=".200498" stroke="#000" stroke-width="3"/></g><g fill-rule="nonzero"><path d="m26.6969 104.7139-2.581 22.528s48.02 12.589 66.073 31.312l-89.518.155 3.351-64.522zm103.0367-104.7139 10.311 20.292s47.177-16.044 72.657-10.36l-74.03 49.132-33.751-55.326z" fill="#e576c6" transform="translate(689 660.7409)"/><path d="m.9372 97.5974 23.785 9.453-.203 18.702-24.313-.893zm104.2602-91.7266 25.148-5.252 10.183 15.772-20.851 12.71z" fill="#f6b852" transform="translate(691 663)"/><path d="m234.667445 201.10015-12.310425 133.62365h-57.019l2.531-194.014-108.8349997.75c-31.0478-.0003-61.07780002-26.6643-58.92480002-57.6533l3.385-31.55 166.20599972-49.102c30.769-6.957 41.437 2.234 61.385 37.744l88.076 180.539-48.384 32.333z" fill="#2437a8" transform="translate(516.99958 441)"/></g><path d="m124.552 0-124.552 77.715 108.835-.75-2.531 194.014h57.019l19.548-212.184c4.823-38.607-19.339-58.795-58.319-58.795" fill="#18181c" opacity=".150484" transform="translate(576.0336 504.7448)"/></g></svg>