<svg height="32" viewBox="0 0 32 32" width="32" xmlns="http://www.w3.org/2000/svg"><g fill="#dceeff"><path d="m16 0c-8.83658065 0-16 7.16341935-16 16 0 8.8365806 7.16341935 16 16 16 8.8365806 0 16-7.1634194 16-16 0-8.83658065-7.1634194-16-16-16zm0 3.09677419c7.1310968 0 12.9032258 5.77103226 12.9032258 12.90322581 0 7.1310968-5.7710323 12.9032258-12.9032258 12.9032258-7.13109677 0-12.90322581-5.7710323-12.90322581-12.9032258 0-7.13109677 5.77103226-12.90322581 12.90322581-12.90322581"/><path d="m25.0454194 11.5010968-1.4539355-1.4656774c-.3010968-.30354843-.7912904-.30554843-1.0948387-.0043871l-9.1194839 9.0461935-3.8575484-3.8888387c-.30109677-.3035484-.79129032-.3055484-1.09483871-.0044516l-1.46574193 1.4539355c-.30354839.3010967-.30554839.7912903-.0043871 1.0949032l5.85683874 5.9042581c.3010967.3035483.7912903.3055483 1.0948387.0043871l11.1347742-11.0454194c.3034838-.3011613.3054193-.7913548.0043226-1.0949032z" stroke="#dceeff" stroke-width=".64"/></g></svg>